<mxfile host="app.diagrams.net" modified="2021-10-11T07:30:36.598Z" agent="5.0 (Windows NT 10.0; Win64; x64) AppleWebKit/537.36 (KHTML, like Gecko) Chrome/94.0.4606.71 Safari/537.36" etag="YAIVwZx2BaZn_hwiVq-s" version="15.4.1" type="github">
  <diagram id="1PxnKQYMLxMKpnVUXyGL" name="Page-1">
    <mxGraphModel dx="723" dy="405" grid="1" gridSize="10" guides="1" tooltips="1" connect="1" arrows="1" fold="1" page="1" pageScale="1" pageWidth="827" pageHeight="1169" math="0" shadow="0">
      <root>
        <mxCell id="0" />
        <mxCell id="1" parent="0" />
        <mxCell id="i3ecYsCD5dpQCQ_p9BT--1" value="Vartotojas" style="swimlane;" vertex="1" parent="1">
          <mxGeometry x="40" y="40" width="200" height="200" as="geometry" />
        </mxCell>
        <mxCell id="i3ecYsCD5dpQCQ_p9BT--2" value="Programa" style="swimlane;" vertex="1" parent="1">
          <mxGeometry x="240" y="40" width="400" height="400" as="geometry" />
        </mxCell>
        <mxCell id="i3ecYsCD5dpQCQ_p9BT--4" value="" style="ellipse;html=1;shape=startState;fillColor=#000000;strokeColor=#ff0000;" vertex="1" parent="i3ecYsCD5dpQCQ_p9BT--2">
          <mxGeometry x="360" y="30" width="30" height="30" as="geometry" />
        </mxCell>
        <mxCell id="i3ecYsCD5dpQCQ_p9BT--5" value="" style="edgeStyle=orthogonalEdgeStyle;html=1;verticalAlign=bottom;endArrow=open;endSize=8;strokeColor=#ff0000;rounded=0;entryX=0.5;entryY=0;entryDx=0;entryDy=0;" edge="1" source="i3ecYsCD5dpQCQ_p9BT--4" parent="i3ecYsCD5dpQCQ_p9BT--2" target="i3ecYsCD5dpQCQ_p9BT--6">
          <mxGeometry relative="1" as="geometry">
            <mxPoint x="310" y="70" as="targetPoint" />
          </mxGeometry>
        </mxCell>
        <mxCell id="i3ecYsCD5dpQCQ_p9BT--6" value="Random(sukuriami random skaičiai masyvui)" style="rounded=1;whiteSpace=wrap;html=1;arcSize=40;fontColor=#000000;fillColor=#ffffc0;strokeColor=#ff0000;" vertex="1" parent="i3ecYsCD5dpQCQ_p9BT--2">
          <mxGeometry x="230" y="70" width="120" height="40" as="geometry" />
        </mxCell>
        <mxCell id="i3ecYsCD5dpQCQ_p9BT--7" value="" style="edgeStyle=orthogonalEdgeStyle;html=1;verticalAlign=bottom;endArrow=open;endSize=8;strokeColor=#ff0000;rounded=0;" edge="1" source="i3ecYsCD5dpQCQ_p9BT--6" parent="i3ecYsCD5dpQCQ_p9BT--2">
          <mxGeometry relative="1" as="geometry">
            <mxPoint x="290" y="150" as="targetPoint" />
          </mxGeometry>
        </mxCell>
      </root>
    </mxGraphModel>
  </diagram>
</mxfile>
